<svg width="180" height="120" version="1.1" viewBox="0 0 47.6 31.8" xmlns="http://www.w3.org/2000/svg"><rect x="7.63e-7" y="3.81e-7" width="47.6" height="31.8" style="fill-opacity:.992;fill-rule:evenodd;fill:#f9f9f9;paint-order:fill markers stroke;stroke-width:0"/><rect x="8.79" y="4.45" width="30" height="3.48" ry=".842" style="fill-opacity:.992;fill-rule:evenodd;fill:#ddc990;paint-order:stroke fill markers;stroke-linecap:round;stroke-miterlimit:3.7;stroke-width:.184;stroke:#a5852e"/><rect x="12.2" y="11.3" width="23.2" height="2.4" ry=".58" style="fill-opacity:.992;fill-rule:evenodd;fill:#999;paint-order:fill markers stroke;stroke-width:0"/><rect x="5.67" y="16.1" width="36.2" height="1.39" ry=".337" style="fill-opacity:.992;fill-rule:evenodd;fill:#e6e6e6;paint-order:fill markers stroke;stroke-width:0"/><rect x="5.67" y="18.8" width="36.2" height="1.39" ry=".337" style="fill-opacity:.992;fill-rule:evenodd;fill:#e6e6e6;paint-order:fill markers stroke;stroke-width:0"/><rect x="8.62" y="21.6" width="30.3" height="1.39" ry=".337" style="fill-opacity:.992;fill-rule:evenodd;fill:#e6e6e6;paint-order:fill markers stroke;stroke-width:0"/><path d="m35 26.5h2.5v4.5l-1.2-0.9-1.3 0.9z" style="fill-rule:evenodd;fill:#a5852f;paint-order:stroke fill markers;stroke-linecap:round;stroke-miterlimit:3.7;stroke-width:.128;stroke:#a5852e"/><path transform="matrix(.148 0 0 .134 19.4 13.8)" d="m133 107-6-1 3 5-5-2 1 5-5-3 1 5-4-4-1 6-3-6-2 6-2-6-3 5v-6l-5 4 2-6-5.5 3 2.5-6-5.6 2 3.6-5h-5.9l4.6-3.4-5.7-1.2 5.2-2.6-5.3-2.4 5.7-1.3-4.6-3.6h5.8l-3.7-4.5 5.9 1.3-2.9-5.2 4.9 2.5-1-5.6 5 3.6-1-5.9 4 4.6 1-5.7 3 5.2 2-5.3 2 5.7 3-4.6v5.8l5-3.7-2 5.6 5-2.6-2 5.3 6-1.5-4 4.6 6-0.1-5 3.6 6 1.2-5 2.6 5 2.4-6 1.3 5 3.9h-6z" style="fill-opacity:.992;fill-rule:evenodd;fill:#ddc990;paint-order:stroke fill markers;stroke-linecap:round;stroke-miterlimit:3.7;stroke-width:.911;stroke:#a5852e"/><rect x="9.08" y="27" width="9.32" height=".761" ry=".185" style="fill-opacity:.992;fill-rule:evenodd;fill:#4d4d4d;paint-order:fill markers stroke;stroke-width:0"/><path d="m31.1 25.2c-0.2 0.6-1.9 1.5-2.8 1.2-0.9-0.2-0.8 1.2-0.8 1.2s-0.7 0.5-1.9-0.9-2.3 1.9-2.3 1.9c-1.9 0.3-2.2-1.4-1.4-2 0.7-0.5 2.8 1.3 2.8 1.3s0.8 0.2 1.3 0.8c0.5 0.7-0.5 1.2-0.7 1.3s-3.1 0.2-3.5-0.3-1.1-2.4-1.3-2.2" style="fill:none;stroke-width:.158px;stroke:#000"/></svg>
