<svg width="83pt" height="83pt" version="1.0" viewBox="0 0 83 83" xmlns="http://www.w3.org/2000/svg"><path class="UnoptimicedTransforms" d="m0.103 0.103v83h83v-83zm46.7 4.64c1.11 0 1.86 0.299 2.22 0.885 0.323 0.536 0.403 1.66 0.204 2.9-0.238 1.49-0.213 2.79 0.0718 3.68 0.192 0.602 0.395 0.903 1.02 1.51 0.74 0.723 1.67 1.29 1.84 1.13 0.0432-0.0423-0.0766-0.387-0.267-0.766-0.19-0.379-0.346-0.796-0.346-0.929 0-0.305 0.467-0.631 0.905-0.631 0.687 0 1.02-0.765 0.706-1.64-0.504-1.42 0.013-2.53 0.797-1.71 0.558 0.581 0.922 2.28 0.926 4.33 2e-3 1.11 0.111 1.5 0.369 1.35 0.0789-0.0477 0.493-0.788 0.92-1.65 0.588-1.18 0.955-1.74 1.52-2.32 0.625-0.642 0.803-0.757 1.11-0.722 0.459 0.0513 0.548 0.475 0.248 1.18-0.461 1.08 0.253 0.814 3.34-1.23 2.94-1.95 4.41-2.69 4.41-2.23 0 0.441-2.68 3.04-4.86 4.72-3.75 2.88-4.77 3.71-5.91 4.82-0.672 0.656-1.3 1.39-1.4 1.62-0.163 0.388-0.157 0.439 0.0688 0.605 0.312 0.229 1.25 0.143 2.01-0.188 0.3-0.13 0.891-0.535 1.31-0.901 0.423-0.365 1.02-0.776 1.33-0.911 0.497-0.219 0.581-0.225 0.751-0.0586 0.158 0.155 0.165 0.266 0.0425 0.63-0.203 0.602-0.652 1.18-2.25 2.91-0.748 0.81-1.34 1.49-1.31 1.52 0.0271 0.0265 1.14-0.419 2.47-0.99 2.58-1.11 4.78-2.31 5.84-3.2 0.491-0.41 0.718-0.522 0.924-0.46 0.407 0.122 0.529 0.248 0.79 0.813 0.283 0.615 0.167 0.886-0.432 1.01-0.822 0.164-0.945 0.554-0.636 2.02 0.122 0.578 0.12 0.76-0.0073 0.885-0.236 0.231-1.17 0.161-2.81-0.211-1.96-0.446-2.11-0.323-1.06 0.911 1.25 1.47 2.25 2.34 3.29 2.87 1.46 0.738 2.17 0.907 4.36 1.03 1.94 0.11 2.48 0.233 2.48 0.567 0 0.0974-0.281 0.541-0.624 0.984-0.757 0.979-1.13 2.01-1.31 3.59-0.172 1.53-0.414 2.37-0.973 3.39-0.713 1.29-1.71 2.5-3.53 4.29-1.74 1.7-2.6 2.8-2.74 3.47-0.125 0.609 0.281 0.695 2.45 0.523 1.66-0.132 2.81-0.305 6.73-1.01 0.811-0.146 2.08-0.3 2.82-0.34 1.14-0.0618 1.37-0.0422 1.52 0.126 0.658 0.776-1.34 1.8-4.57 2.35-1.02 0.173-2.53 0.291-4.71 0.368-4.35 0.154-5.19 0.335-5.19 1.11 0 0.719 0.856 1.08 3.06 1.28 1.58 0.147 3.01 0.109 8.22-0.22 4.15-0.261 7.18-0.124 7.18 0.325 0 0.597-2.78 1.43-8.59 2.58-5.39 1.06-7.37 1.63-8.81 2.52-1.4 0.869-1.41 1.73-0.0571 3.47 0.73 0.943 0.812 1.22 0.365 1.22-0.629 0-2.43-1.25-4.5-3.11-1.74-1.57-2.68-2.18-3.26-2.13-0.62 0.0524-0.951 0.523-1.02 1.45-0.0658 0.92 0.239 1.4 1.31 2.03 0.906 0.538 1.47 1.18 1.57 1.8 0.0845 0.509-0.0279 1.09-0.209 1.09-0.0658 0-0.511-0.344-0.99-0.763-1.62-1.42-2.83-1.86-3.3-1.21-0.265 0.37-0.253 0.79 0.0542 1.75 0.14 0.437 0.255 1.06 0.256 1.38 0.0037 1.3-0.946 3.25-2 4.1-0.783 0.633-1.52 0.923-2.62 1.03-1.88 0.185-2.28 0.713-2.44 3.24-0.153 2.4-0.522 3.83-1.45 5.63-0.535 1.04-1.39 1.98-1.92 2.11-0.526 0.129-0.646-0.0617-0.543-0.861 0.0797-0.624 0.306-1.32 1.68-5.14 1.24-3.46 0.737-5.16-1.78-5.97-1.41-0.455-2.43-0.64-3.96-0.721-2.49-0.132-3.79 0.319-4.68 1.62-0.772 1.13-1.16 2.4-1.72 5.67-0.809 4.73-1.66 7.31-2.95 8.9-0.813 1.01-1.27 1.5-1.27 1.37 8.97e-4 -0.0664 0.12-0.488 0.264-0.936 0.701-2.19 2.51-10 2.41-10.4-0.0254-0.105-1.15 0.826-2.8 2.32-4.9 4.44-6.95 5.86-6.05 4.19 0.47-0.867 1.57-2.15 3.46-4.02 2.26-2.25 3.3-3.45 4.39-5.06 1.18-1.75 1.56-2.91 0.951-2.91-0.559 0-2.36 1.68-5.87 5.49-4.13 4.47-7.17 6.3-7.97 4.79-0.495-0.936-0.0612-2.3 1.14-3.59 0.764-0.82 2.17-1.87 2.24-1.68 0.0251 0.0738-0.161 0.718-0.413 1.43-0.529 1.5-0.554 1.71-0.208 1.71 0.349 0 1.47-0.95 3.3-2.79 2.59-2.61 3.01-3.81 1.48-4.23-0.262-0.0712-0.805-0.13-1.2-0.13-0.818-7.53e-4 -1.13-0.084-1.13-0.3 0-0.209 1.13-1.25 2.59-2.38 1.97-1.53 1.89-1.77-0.599-1.77-2.02 0-2.32 0.125-2.56 1.07-0.111 0.451-0.223 0.6-0.586 0.778-1.48 0.722-4.63-0.611-6.02-2.54-1.17-1.63-1.93-3.88-1.93-5.7 0-1.47 0.271-2.24 1.04-2.98 0.549-0.529 0.627-0.667 0.627-1.12 0-0.716-0.376-1.41-1.38-2.54-1.58-1.78-2.8-3.31-3.16-3.95-0.459-0.826-0.568-1.82-0.281-2.55 0.22-0.564 0.347-0.742 1.71-2.39 0.484-0.585 0.801-1.09 0.801-1.27 0-0.452-0.442-0.768-1.59-1.14-2.03-0.655-2.64-1.11-2.64-1.99 0-1 0.931-2.22 4.47-5.84 2.62-2.68 3.08-3.21 3.53-4.09 0.728-1.42 0.347-2.21-1.66-3.46-0.844-0.524-1.6-1.22-1.6-1.48 0-0.0621 0.145-0.206 0.324-0.321 0.559-0.359 1.62-0.174 3.25 0.565 2.42 1.1 3.2 1.12 4.31 0.126 0.621-0.56 0.873-1.05 0.812-1.57-0.0372-0.315-0.201-0.433-1.46-1.05-2.33-1.13-3.6-2.26-3.26-2.88 0.354-0.647 1.71-0.436 4 0.624 2 0.927 2.41 0.946 1.32 0.0601-0.42-0.343-1.21-1.06-1.76-1.59-0.808-0.784-0.993-1.04-0.993-1.35 0-0.299 0.0669-0.4 0.303-0.458 0.703-0.173 2.4 0.568 4.22 1.85 1.72 1.2 2.27 1.42 3.55 1.41 0.922-0.0089 1.34-0.0929 2.76-0.549 3.58-1.16 6.43-2.43 8.44-3.76 1.3-0.856 1.92-1.49 2.38-2.43 0.957-1.96 3.93-3.59 6.56-3.59zm-0.993 1.58c-0.401 0.00682-0.859 0.218-1.34 0.645-0.74 0.654-1.06 1.32-1.06 2.23-0.0058 0.856 0.348 1.57 0.935 1.88 0.157 0.0836 0.364 0.127 0.583 0.152-1.58-0.338-2.11-2.65-0.602-4.02 1.51-1.6 2.89-0.861 2.89 1.6 0 1.14-0.628 2.11-1.43 2.38 0.17-0.0382 0.327-0.0912 0.451-0.166 0.781-0.466 1.2-1.81 0.958-3.09-0.2-1.07-0.71-1.62-1.38-1.61zm-0.0308 4.87c-0.272 0.061-0.575 0.067-0.858 0.0337 0.128 0.0273 0.262 0.0425 0.403 0.0425 0.156 0 0.309-0.0264 0.456-0.0762zm1.7 3.74c-0.193-0.0067-0.297 0.127-0.297 0.41 0 0.41 0.489 0.916 2.18 2.25 1.26 0.996 1.67 1.23 1.67 0.962 0-0.189-1.08-1.55-1.93-2.44-0.731-0.765-1.3-1.17-1.62-1.18zm0.0176 0.0601c0.407-0.0059 1.23 0.708 2.36 2.06 1.63 1.97 1.51 2.09-0.376 0.491-1.26-0.861-2.26-1.84-2.26-2.09 0-0.307 0.0993-0.459 0.284-0.461zm-12 1.17c-0.502-0.0165-1.01 0.0345-1.35 0.174-0.847 0.346-1.12 1.34-0.454 1.67 0.506 0.249 1.03 0.191 1.9-0.215 1.03-0.477 1.56-0.842 1.56-1.08 0-0.304-0.819-0.519-1.66-0.546zm-0.258 0.0293c1.01 0 1.89 0.246 1.89 0.492s-0.88 0.737-1.89 1.23c-1.01 0.369-1.89 0.123-1.89-0.492 0-0.738 0.88-1.23 1.89-1.23zm4.42 5.14c-0.696-4.4e-4 -1.39 0.0264-1.6 0.082-0.471 0.129-0.467 0.374 0.0102 0.577 0.509 0.216 2.38 0.251 3.1 0.0571 0.563-0.153 0.61-0.489 0.0879-0.631-0.205-0.0559-0.902-0.0845-1.6-0.085zm-0.0146 0.0293c1.76 0 2.39 0.245 1.63 0.614-0.88 0.246-2.39 0.246-3.14 0-0.88-0.369-0.251-0.614 1.51-0.614zm16.7 4.65c-0.0783 0.0018-0.138 0.0449-0.227 0.132-0.29 0.283-0.26 0.371 0.344 1.02 0.544 0.579 3.15 2.67 3.33 2.67 0.0529 7.52e-4 0.0952-0.0716 0.0952-0.16 0-0.207-1.44-1.98-2.23-2.76-0.338-0.33-0.778-0.681-0.977-0.782-0.161-0.0812-0.257-0.122-0.335-0.12zm-0.0293 0.0542c0.407-0.0059 1.23 0.708 2.36 2.06 1.63 1.97 1.51 2.09-0.376 0.491-1.26-0.861-2.26-1.84-2.26-2.09 0-0.307 0.0993-0.459 0.284-0.461zm-43.7 3.65c-0.292 0.0228-0.668 0.301-1.02 0.814-0.453 0.667-0.46 0.697-0.388 1.62 0.0774 1 0.553 2.21 1.19 3.03 0.422 0.541 0.657 0.522 0.782-0.0601l-0.0059-0.456c-0.139 1.31-0.414 1.11-1.28-0.4-0.629-1.11-0.881-2.71-0.504-3.32 0.895-1.49 1.47-1.54 1.73-0.207l-0.0044-0.309c-7e-3 -0.51-0.215-0.742-0.507-0.719zm0.511 1.03 0.0542 3.93c0.0424-0.401 0.0731-0.939 0.103-1.63 0-0.991-0.0525-1.76-0.157-2.3zm43.7 0.163c-0.213-0.0045-0.541 0.383-0.993 1.17-0.736 1.29-0.634 2.64 0.198 2.64 0.0958 0 0.337-0.0823 0.536-0.183 0.472-0.239 0.778-0.999 0.778-1.93 0-0.758-0.197-1.52-0.434-1.67-0.0258-0.0166-0.0545-0.0257-0.085-0.0264zm-0.022 0.044c0.251 0 0.504 0.861 0.504 1.84s-0.504 1.85-1.26 1.85c-0.629 0-0.88-0.862-0.502-1.85 0.503-0.984 1.01-1.84 1.26-1.84zm7.4 1.76c-0.283 0-0.389 0.534-0.388 1.94 8.97e-4 1.87 0.243 2.4 0.69 1.5 0.215-0.431 0.235-2.58 0.0293-3.1-0.0753-0.19-0.225-0.346-0.331-0.346zm-0.0205 0.022c0.0834-1e-3 0.18 0.0986 0.286 0.306 0.251 0.861 0.251 2.34 0 3.07-0.377 0.861-0.628 0.246-0.628-1.48 0-1.24 0.13-1.9 0.343-1.91zm-45.1 12.9c-0.193 0.0086-0.434 0.125-0.725 0.349-0.404 0.311-0.839 1.11-0.839 1.54 0 0.311 0.41 0.702 0.737 0.702 0.0923 0 0.364-0.0807 0.604-0.179 0.583-0.238 0.886-0.823 0.803-1.55-0.0681-0.591-0.257-0.876-0.579-0.861zm38.8 4.83c-0.423 0.0334-0.7 0.287-0.599 0.681 0.133 0.517 2.79 2.85 3.24 2.85 0.0252 0 0.0489-0.0103 0.0703-0.0264-0.181 0.0271-0.615-0.283-1.38-0.917-1.01-0.861-1.89-1.72-1.89-1.97 0-1.35 2.39-0.246 3.02 1.48 0.201 0.55 0.325 0.937 0.347 1.16 6.32e-4 -0.0106 0.0059-0.0169 0.0059-0.0278 0-0.984-1.01-2.56-1.95-3.04-0.306-0.155-0.612-0.215-0.866-0.195zm2.81 3.26c-0.0065 0.109-0.04 0.203-0.0952 0.245 0.0805-0.013 0.11-0.0948 0.0952-0.245zm-2.7-3.11c-0.445 0-0.693 0.28-0.52 0.587 0.153 0.272 1.67 1.72 2.39 2.28 0.28 0.218 0.553 0.397 0.608 0.397 0.298 0-0.108-1.3-0.643-2.06-0.413-0.586-1.35-1.2-1.83-1.2zm-43 1.3c-0.28 0.0077-0.417 0.255-0.417 0.749 0.644 1.69 3.17 3.3 5.13 3.87-1.45-1.51-2.77-3.81-4.71-4.61zm0.119 3.6c-0.0665 0-0.107 0.0602-0.123 0.167 0.0318-0.117 0.0978-0.165 0.204-0.146-0.0316-0.0129-0.0584-0.0205-0.0806-0.0205zm-0.123 0.167c-0.0172 0.0634-0.0278 0.139-0.0278 0.24 0 1.49 1.45 3.41 2.5 3.32 0.31-0.0285 0.391-0.1 0.423-0.371 0.0626-0.53-0.441-1.33-1.5-2.39-0.608-0.605-0.974-0.902-1.18-0.943 1.08 0.459 3.4 3.62 2.18 3.67-0.629 0-1.51-0.861-2.01-1.84-0.277-0.724-0.42-1.38-0.375-1.68zm0.211-0.0527c-0.193 0-0.121 0.72 0.142 1.41 0.29 0.757 0.89 1.52 1.47 1.87 0.463 0.279 0.889 0.259 0.948-0.044 0.0785-0.403-0.418-1.16-1.43-2.2-0.558-0.569-1.06-1.03-1.12-1.03zm35.6 1.24c-0.0541 0.0264-0.183 0.0858-0.333 0.155 0.183-0.0673 0.308-0.103 0.374-0.105-0.0136-0.0311-0.0273-0.0498-0.041-0.0498zm0.041 0.0498c0.111 0.253 0.211 1.49 0.211 3.02 0 2.46-0.503 3.07-2.77 2.71-1.81-0.236-2.83-0.839-3.04-1.58 0.11 0.424 0.438 0.811 1.01 1.1 0.695 0.347 1.89 0.59 2.96 0.602 0.829 0.0094 0.901-0.0134 1.3-0.404 0.343-0.336 0.442-0.551 0.517-1.14 0.109-0.851 0.0227-4.1-0.114-4.31-0.0055-0.0087-0.056 0.0065-0.0791 0.0073zm-5.6 4.15c-0.0194-0.0749-0.033-0.15-0.0381-0.227 0.0041 0.0772 0.0172 0.152 0.0381 0.227zm-0.0381-0.227c-0.0402-0.754 0.721-1.62 2.32-2.37 1.28-0.676 2.39-1.19 2.94-1.44-1.01 0.371-3.47 1.58-4.22 2.11-0.74 0.529-1.08 1.14-1.04 1.71zm-2.07-3.87c-0.892-0.0152-1.8 0.0081-2.07 0.0791-0.717 0.19-0.237 0.567 0.926 0.727 0.857 0.118 2.9 0.0236 3.23-0.148 0.334-0.175 0.294-0.348-0.116-0.51-0.2-0.079-1.07-0.133-1.97-0.148zm-0.253 0.0234c2.14 0 3.02 0.246 2.26 0.615-0.88 0.246-2.64 0.246-3.77 0-1.26-0.369-0.502-0.615 1.51-0.615zm7.91 0.0688c-0.151 0.0051-1.05 0.392-2.09 0.902-2.47 1.21-3.37 1.95-3.37 2.76 0 0.787 0.775 1.38 2.27 1.73 0.984 0.233 2.14 0.239 2.58 0.0132 0.611-0.309 0.718-0.776 0.718-3.16 0-1.18-0.0424-2.19-0.0938-2.24-0.0032-0.0031-0.0105-0.0047-0.0205-0.0044z" style="fill-opacity:0;paint-order:fill markers stroke"/><g transform="matrix(1.07 0 0 1.06 -3.77 -3.75)"><path d="m44.3 7.21c-1.63 1.48-0.88 4.06 1.01 4.06 1.01 0 1.89-1.11 1.89-2.46 0-2.46-1.38-3.2-2.89-1.6z" style="fill-opacity:0;stroke-width:1.24"/><path d="m47.2 15.4c0 0.246 1.01 1.23 2.26 2.09 1.89 1.6 2.01 1.48 0.377-0.492-1.63-1.97-2.64-2.58-2.64-1.6z" style="fill:none"/><path d="m33.4 17.4c0 0.615 0.88 0.861 1.89 0.492 1.01-0.492 1.89-0.984 1.89-1.23s-0.88-0.492-1.89-0.492-1.89 0.492-1.89 1.23z" style="fill:none"/><path d="m38.1 22c0.754 0.246 2.26 0.246 3.14 0 0.754-0.369 0.126-0.615-1.63-0.615-1.76 0-2.39 0.246-1.51 0.615z" style="fill:none"/><path d="m56 26.5c0 0.246 1.01 1.23 2.26 2.09 1.89 1.6 2.01 1.48 0.377-0.492s-2.64-2.58-2.64-1.6z" style="fill:none"/><path d="m11.4 30.9c-0.377 0.615-0.126 2.21 0.503 3.32 1.13 1.97 1.26 1.72 1.38-1.23 0-3.44-0.629-4.18-1.89-2.09z" style="fill:none"/><path d="m55.5 32.8c-0.377 0.984-0.126 1.84 0.503 1.84 0.754 0 1.26-0.861 1.26-1.84s-0.251-1.84-0.503-1.84c-0.251 0-0.754 0.861-1.26 1.84z" style="fill:none"/><path d="m63.8 34.6c0 1.72 0.251 2.34 0.629 1.48 0.251-0.738 0.251-2.21 0-3.07-0.377-0.738-0.629-0.123-0.629 1.6z" style="fill:none"/><path d="m17.6 46.9c-0.377 0.615-0.126 1.23 0.503 1.23 0.754 0 1.38-0.615 1.38-1.23 0-0.738-0.251-1.23-0.503-1.23-0.377 0-1.01 0.492-1.38 1.23z" style="fill:none"/><path d="m57.2 51.1c0 0.246 0.88 1.11 1.89 1.97 1.63 1.35 1.76 1.23 1.13-0.492s-3.02-2.83-3.02-1.48z" style="fill:none"/><path d="m14.5 52.8c0 0.492 1.26 1.6 2.89 2.58 2.77 1.72 2.77 1.72 0.377-0.984-2.51-2.71-3.27-3.07-3.27-1.6z" style="fill:none"/><path d="m15.3 57.4c0.503 0.984 1.38 1.84 2.01 1.84 0.754 0 0.629-0.738-0.251-1.84-0.88-0.984-1.76-1.84-2.01-1.84-0.251 0-0.126 0.861 0.251 1.84z" style="fill:none"/><path d="m41.3 57.6c1.13 0.246 2.89 0.246 3.77 0 0.754-0.369-0.126-0.615-2.26-0.615-2.01 0-2.77 0.246-1.51 0.615z" style="fill:none"/><path d="m47.4 58.5c-3.39 1.6-3.02 3.69 0.754 4.18 2.26 0.369 2.77-0.246 2.77-2.71 0-1.72-0.126-3.07-0.251-3.07-0.251 0.123-1.63 0.738-3.27 1.6z" style="fill-opacity:0;stroke-width:1.24"/><path d="m27.3 81.2c8.97e-4 -0.0664 0.119-0.487 0.263-0.936 0.701-2.19 2.51-10 2.41-10.4-0.0254-0.105-1.15 0.827-2.8 2.32-4.9 4.44-6.95 5.86-6.04 4.19 0.47-0.867 1.57-2.15 3.46-4.02 2.26-2.25 3.3-3.45 4.39-5.05 1.18-1.75 1.56-2.91 0.95-2.91-0.559 0-2.36 1.68-5.87 5.49-4.13 4.47-7.17 6.3-7.97 4.79-0.495-0.936-0.0607-2.3 1.14-3.59 0.764-0.82 2.17-1.87 2.24-1.68 0.0251 0.0738-0.161 0.719-0.413 1.43-0.529 1.5-0.555 1.71-0.209 1.71 0.349 0 1.47-0.949 3.3-2.79 2.59-2.61 3.01-3.81 1.48-4.23-0.262-0.0712-0.803-0.13-1.2-0.13-0.818-7.53e-4 -1.13-0.0842-1.13-0.301 0-0.209 1.13-1.25 2.59-2.38 1.97-1.53 1.89-1.77-0.598-1.77-2.02 0-2.32 0.126-2.56 1.07-0.111 0.451-0.223 0.599-0.586 0.777-1.48 0.722-4.63-0.61-6.02-2.54-1.17-1.63-1.93-3.88-1.93-5.7 0-1.47 0.271-2.24 1.04-2.98 0.549-0.529 0.627-0.667 0.627-1.12 0-0.716-0.375-1.41-1.38-2.54-1.58-1.78-2.8-3.31-3.16-3.95-0.459-0.826-0.569-1.82-0.282-2.55 0.22-0.564 0.347-0.741 1.71-2.39 0.484-0.585 0.801-1.09 0.801-1.27 0-0.452-0.442-0.768-1.59-1.14-2.03-0.655-2.64-1.11-2.64-1.99 0-1 0.931-2.22 4.47-5.84 2.62-2.68 3.08-3.21 3.53-4.09 0.728-1.42 0.346-2.21-1.66-3.46-0.844-0.524-1.6-1.22-1.6-1.48 0-0.0621 0.146-0.206 0.325-0.321 0.559-0.359 1.62-0.173 3.25 0.566 2.42 1.1 3.2 1.12 4.31 0.126 0.621-0.56 0.874-1.05 0.813-1.57-0.0372-0.315-0.202-0.432-1.47-1.05-2.33-1.13-3.6-2.26-3.26-2.88 0.354-0.647 1.71-0.435 4 0.625 2 0.927 2.41 0.945 1.32 0.0598-0.42-0.343-1.21-1.06-1.76-1.59-0.808-0.784-0.993-1.03-0.993-1.35 0-0.299 0.0669-0.401 0.303-0.459 0.703-0.173 2.4 0.568 4.22 1.85 1.72 1.2 2.27 1.42 3.55 1.41 0.922-0.0089 1.34-0.0932 2.76-0.55 3.58-1.16 6.43-2.43 8.44-3.76 1.3-0.856 1.92-1.49 2.38-2.43 0.957-1.96 3.93-3.59 6.56-3.59 1.11 0 1.86 0.299 2.22 0.885 0.323 0.536 0.402 1.66 0.203 2.9-0.238 1.49-0.213 2.78 0.0714 3.68 0.192 0.602 0.395 0.903 1.02 1.51 0.74 0.723 1.67 1.29 1.84 1.13 0.0432-0.0423-0.0768-0.387-0.267-0.766s-0.345-0.797-0.345-0.93c0-0.305 0.468-0.631 0.906-0.631 0.687 0 1.02-0.764 0.706-1.64-0.504-1.42 0.013-2.53 0.797-1.71 0.558 0.581 0.922 2.28 0.926 4.33 2e-3 1.11 0.111 1.5 0.369 1.35 0.0789-0.0477 0.492-0.788 0.919-1.64 0.588-1.18 0.955-1.74 1.52-2.32 0.625-0.642 0.802-0.757 1.11-0.722 0.459 0.0513 0.548 0.475 0.247 1.18-0.461 1.08 0.254 0.815 3.34-1.23 2.94-1.95 4.41-2.69 4.41-2.23 0 0.441-2.68 3.04-4.86 4.72-3.75 2.88-4.77 3.71-5.91 4.82-0.672 0.656-1.3 1.38-1.4 1.62-0.163 0.388-0.157 0.44 0.0684 0.606 0.312 0.229 1.25 0.141 2.01-0.189 0.3-0.13 0.891-0.535 1.31-0.9 0.423-0.365 1.02-0.775 1.33-0.911 0.497-0.219 0.581-0.225 0.751-0.0589 0.158 0.155 0.165 0.265 0.0426 0.629-0.203 0.602-0.652 1.18-2.25 2.91-0.748 0.81-1.34 1.49-1.31 1.52 0.0271 0.0265 1.14-0.419 2.47-0.991 2.58-1.11 4.78-2.31 5.84-3.19 0.491-0.41 0.717-0.523 0.923-0.461 0.407 0.122 0.53 0.249 0.791 0.813 0.283 0.615 0.167 0.886-0.433 1.01-0.822 0.164-0.945 0.555-0.636 2.02 0.122 0.578 0.121 0.761-0.0067 0.885-0.236 0.231-1.17 0.16-2.81-0.211-1.96-0.446-2.11-0.322-1.06 0.912 1.25 1.47 2.25 2.34 3.29 2.87 1.46 0.738 2.17 0.908 4.36 1.03 1.94 0.11 2.48 0.233 2.48 0.567 0 0.0974-0.281 0.54-0.624 0.983-0.757 0.979-1.13 2.01-1.31 3.6-0.172 1.53-0.414 2.37-0.973 3.39-0.713 1.29-1.7 2.5-3.53 4.29-1.74 1.7-2.6 2.8-2.74 3.47-0.125 0.609 0.281 0.696 2.45 0.524 1.66-0.132 2.81-0.305 6.73-1.01 0.811-0.146 2.08-0.299 2.82-0.339 1.14-0.0618 1.37-0.0421 1.52 0.126 0.658 0.776-1.34 1.8-4.57 2.35-1.02 0.173-2.53 0.292-4.71 0.369-4.35 0.154-5.19 0.334-5.19 1.11 0 0.719 0.855 1.08 3.06 1.28 1.58 0.147 3.01 0.108 8.22-0.22 4.15-0.261 7.18-0.124 7.18 0.325 0 0.597-2.78 1.43-8.59 2.58-5.39 1.06-7.37 1.63-8.81 2.52-1.4 0.869-1.41 1.72-0.0578 3.47 0.73 0.943 0.812 1.22 0.365 1.22-0.629 0-2.43-1.25-4.5-3.11-1.74-1.57-2.68-2.18-3.26-2.13-0.62 0.0524-0.951 0.524-1.02 1.45-0.0658 0.92 0.239 1.39 1.31 2.03 0.906 0.538 1.47 1.18 1.57 1.8 0.0845 0.509-0.0271 1.09-0.209 1.09-0.0658 0-0.512-0.343-0.991-0.763-1.62-1.42-2.83-1.86-3.3-1.22-0.265 0.37-0.252 0.79 0.0552 1.75 0.14 0.437 0.255 1.06 0.256 1.38 0.0037 1.3-0.946 3.25-2 4.1-0.783 0.633-1.52 0.924-2.62 1.03-1.88 0.185-2.28 0.713-2.44 3.24-0.153 2.4-0.522 3.83-1.45 5.63-0.535 1.04-1.39 1.98-1.92 2.11-0.526 0.129-0.646-0.0612-0.544-0.861 0.0797-0.624 0.306-1.32 1.68-5.14 1.24-3.46 0.737-5.16-1.78-5.97-1.41-0.455-2.43-0.64-3.96-0.721-2.49-0.132-3.79 0.319-4.68 1.62-0.772 1.13-1.16 2.4-1.72 5.67-0.809 4.73-1.66 7.31-2.95 8.9-0.813 1.01-1.27 1.5-1.27 1.37zm23.1-18.8c0.343-0.336 0.441-0.552 0.516-1.14 0.109-0.851 0.023-4.09-0.114-4.31-0.108-0.171-3.74 1.56-4.67 2.22-1.41 1.01-1.41 2.33 0.0021 3.03 0.695 0.347 1.89 0.59 2.96 0.602 0.829 0.0094 0.902-0.0133 1.3-0.404zm-32.6-3.49c0.0626-0.53-0.442-1.33-1.5-2.39-1.09-1.09-1.42-1.22-1.42-0.557 0 1.49 1.45 3.41 2.5 3.32 0.31-0.0285 0.392-0.1 0.424-0.371zm27.3-1.24c0.334-0.175 0.294-0.349-0.116-0.511-0.4-0.158-3.5-0.211-4.04-0.0688-0.717 0.19-0.237 0.567 0.926 0.726 0.857 0.118 2.9 0.0249 3.23-0.147zm-25.5-1.1c0-0.38-3.78-4.3-4.38-4.54-0.501-0.203-0.745 0.019-0.745 0.677 0 0.458 0.0772 0.585 0.737 1.21 0.405 0.385 1.49 1.16 2.4 1.73 1.58 0.978 1.99 1.17 1.99 0.925zm41-2.83c0-0.984-1.01-2.56-1.95-3.04-0.817-0.413-1.63-0.144-1.47 0.487 0.133 0.517 2.79 2.85 3.24 2.85 0.0969 0 0.173-0.132 0.173-0.299zm-41.9-5.65c0.583-0.238 0.886-0.823 0.802-1.55-0.109-0.945-0.528-1.11-1.3-0.514-0.404 0.311-0.84 1.11-0.84 1.54 0 0.311 0.41 0.702 0.738 0.702 0.0923 0 0.364-0.0802 0.604-0.178zm45.7-11.9c0.215-0.431 0.234-2.58 0.0283-3.1-0.0753-0.19-0.224-0.345-0.33-0.345-0.283 0-0.39 0.534-0.39 1.94 8.97e-4 1.87 0.245 2.4 0.691 1.5zm-51.3-1.03-0.0644-4.69c-0.014-1.02-0.826-0.932-1.52 0.0947-0.453 0.667-0.46 0.698-0.388 1.63 0.0774 1 0.553 2.21 1.19 3.03 0.422 0.541 0.656 0.523 0.781-0.0595zm43.4-0.591c0.472-0.239 0.779-0.999 0.779-1.93 0-0.758-0.198-1.52-0.435-1.67-0.207-0.133-0.56 0.244-1.08 1.15-0.736 1.29-0.635 2.64 0.197 2.64 0.0958 0 0.337-0.0825 0.536-0.183zm3.34-4.87c0-0.207-1.44-1.98-2.23-2.76-0.338-0.33-0.778-0.682-0.977-0.783-0.321-0.162-0.385-0.161-0.563 0.0129-0.29 0.283-0.26 0.371 0.344 1.02 0.544 0.579 3.15 2.67 3.33 2.67 0.0529 7.52e-4 0.0961-0.0707 0.0961-0.159zm-18.7-7.62c0.563-0.153 0.61-0.489 0.0876-0.632-0.411-0.112-2.79-0.113-3.19-2e-3 -0.471 0.129-0.466 0.373 0.0114 0.576 0.509 0.216 2.38 0.251 3.1 0.0574zm9.83-3.49c0-0.189-1.08-1.55-1.93-2.44-1.17-1.22-1.92-1.52-1.92-0.769 0 0.41 0.49 0.915 2.18 2.25 1.26 0.996 1.67 1.23 1.67 0.962zm-15.4-0.767c1.03-0.477 1.56-0.842 1.56-1.08 0-0.486-2.09-0.745-3.01-0.372-0.847 0.346-1.12 1.34-0.454 1.67 0.506 0.249 1.03 0.19 1.9-0.216zm10.6-6.76c0.781-0.466 1.2-1.81 0.958-3.09-0.321-1.71-1.43-2.11-2.72-0.969-0.74 0.654-1.06 1.32-1.06 2.23-0.0058 0.856 0.348 1.57 0.934 1.88 0.489 0.26 1.42 0.236 1.89-0.0479z" style="fill-opacity:.992;fill:#0175b2;stroke-width:.127"/><path d="m47.5 62.5c-1.5-0.356-2.27-0.945-2.27-1.73 0-0.811 0.897-1.55 3.37-2.76 1.11-0.544 2.06-0.949 2.11-0.899 0.0514 0.0502 0.0934 1.06 0.0934 2.24 0 2.39-0.106 2.85-0.717 3.16-0.446 0.226-1.6 0.22-2.58-0.0137z" style="fill-opacity:0;stroke-width:.127"/><path d="m47.5 62.5c-1.5-0.356-2.27-0.945-2.27-1.73 0-0.811 0.897-1.55 3.37-2.76 1.11-0.544 2.06-0.949 2.11-0.899 0.0514 0.0502 0.0934 1.06 0.0934 2.24 0 2.39-0.106 2.85-0.717 3.16-0.446 0.226-1.6 0.22-2.58-0.0137z" style="fill-opacity:0;stroke-width:.127"/><path d="m47.5 62.5c-1.5-0.356-2.27-0.945-2.27-1.73 0-0.811 0.897-1.55 3.37-2.76 1.11-0.544 2.06-0.949 2.11-0.899 0.0514 0.0502 0.0934 1.06 0.0934 2.24 0 2.39-0.106 2.85-0.717 3.16-0.446 0.226-1.6 0.22-2.58-0.0137z" style="fill-opacity:0;stroke-width:.127"/><path d="m59.8 53.5c-0.716-0.557-2.23-2-2.39-2.28-0.173-0.307 0.076-0.588 0.521-0.588 0.48 0 1.42 0.614 1.83 1.2 0.535 0.759 0.941 2.06 0.643 2.06-0.0544 0-0.328-0.178-0.609-0.397z" style="fill-opacity:0;stroke-width:.127"/><path d="m16.7 58.9c-0.576-0.347-1.18-1.11-1.47-1.87-0.263-0.687-0.336-1.41-0.143-1.41 0.0608 0 0.567 0.465 1.12 1.03 1.01 1.03 1.51 1.8 1.43 2.2-0.0591 0.303-0.484 0.323-0.947 0.0434z" style="fill-opacity:0;stroke-width:.127"/></g></svg>
