<svg width="80" height="80" version="1.1" viewBox="0 0 21.2 21.2" xmlns="http://www.w3.org/2000/svg"><rect x="2.35e-7" y="2.35e-7" width="21.2" height="21.2" style="fill-rule:evenodd;fill:#414141;paint-order:fill markers stroke"/><path d="m5.29 3.07 13.2 1.29-0.0314 6.3-13.2 4.42z" style="fill-rule:evenodd;fill:#b3b3b3;paint-order:fill markers stroke;stroke-width:.529"/><path d="m2.28 3.86 3.1-0.815-0.0835 12.1-3.05-1.82z" style="fill-rule:evenodd;fill:#808080;paint-order:fill markers stroke;stroke-width:.431"/><path d="m19.2 10.9c1.51-1.33-2.13-2.17-2.13-2.17l0.488-0.0887s3.59 0.887 2.84 2.44c-0.754 1.55-9.31 5.54-13.2 6.3-2 0.0444-3.06-0.621-3.99-1.11-0.931-0.488-4.19-3.07-4.35-3.59-0.288-0.97 0.367 0.144 3.95 1.95 2.35 1.37 4.61 2.08 7.94 0.54 7.01-3.25 6.45-2.51 8.47-4.27z" style="fill:none;stroke-width:.318;stroke:#b4b4b4"/><path d="m7.14 4.55 3.26 0.245-0.0964 2.7-3.17 0.224z" style="fill-rule:evenodd;fill:#e5e5e5;paint-order:fill markers stroke;stroke-width:.135"/><path d="m7.17 9.12 3.23-0.256-0.018 2.79-3.24 0.71z" style="fill-rule:evenodd;fill:#3e3e3e;paint-order:fill markers stroke;stroke-width:.135"/><path d="m11.7 5.05 2.51 0.31-4e-3 1.91-2.47 0.193z" style="fill-rule:evenodd;fill:#3e3e3e;paint-order:fill markers stroke;stroke-width:.101"/><path d="m11.8 8.84 2.57-0.201-0.0797 1.99-2.52 0.56z" style="fill-rule:evenodd;fill:#e5e5e5;paint-order:fill markers stroke;stroke-width:.108"/><path d="m15.5 5.55 2.07 0.179-0.0648 1.33-2.01 0.124z" style="fill-rule:evenodd;fill:#3e3e3e;paint-order:fill markers stroke;stroke-width:.0941"/><path d="m15.5 8.65 2.01-0.149-0.102 1.42-1.91 0.484z" style="fill-rule:evenodd;fill:#e5e5e5;paint-order:fill markers stroke;stroke-width:.0911"/></svg>
