<?xml version="1.0" encoding="utf-8"?><svg xmlns="http://www.w3.org/2000/svg" xml:space="preserve" id="_x32_" version="1.1" viewBox="0 0 512 512"><style>.st0{fill:#000}</style><path d="M438.328 93.436h-35.364V34.369H109.036v59.068H73.672C32.992 93.436 0 126.429 0 167.108v89.888c0 40.671 32.992 73.672 73.672 73.672h5.065l-20.31 100.57a38.796 38.796 0 0 0 7.99 32.187 38.73 38.73 0 0 0 29.979 14.207H289.98c28.17 0 51.362-1.801 70.667-5.411 14.484-2.718 26.803-6.458 37.33-11.366 15.773-7.298 27.538-17.496 35.321-29.85 7.808-12.328 11.618-26.309 13.409-41.138l.234-1.965-.416-1.931-11.886-55.302h3.688c40.68 0 73.672-33 73.672-73.672v-89.888c.001-40.68-32.991-73.673-73.671-73.673zM132.74 58.072h246.52v35.365H132.74V58.072zm282.222 357.392c-3.221 5.843-7.35 10.882-13.081 15.461-8.58 6.839-21.063 12.648-39.312 16.718-11.401 2.527-25.01 4.362-41.069 5.367 5.29-5.108 11.064-11.056 17.194-17.886 12.509-13.972 26.257-31.373 39.182-51.422 14.206 4.553 25.642 9.973 33.754 14.431a145.75 145.75 0 0 1 8.354 4.943c-1.325 4.501-2.97 8.648-5.022 12.388zm-38.646-52.046-6.882-1.948-3.767 6.087c-16.786 27.14-35.649 49.752-50.903 65.422-7.618 7.826-14.354 13.92-19.323 17.902a73.335 73.335 0 0 1-4.018 3.03c-.493.009-.943.017-1.445.017H96.397c-4.51 0-8.778-2.026-11.635-5.506a15.065 15.065 0 0 1-3.393-9.523c0-.987.096-1.982.294-2.978l39.443-195.331h269.92l30.378 141.276c-10.424-5.783-25.696-12.96-45.088-18.448zm111.981-106.422c0 13.842-5.593 26.266-14.648 35.321-9.056 9.056-21.478 14.648-35.321 14.648h-8.787l-19.374-90.077H101.713l-18.189 90.077h-9.852c-13.843 0-26.266-5.592-35.321-14.648-9.055-9.056-14.647-21.479-14.647-35.321v-89.888c0-13.842 5.592-26.257 14.647-35.312 9.056-9.054 21.478-14.647 35.321-14.647h364.655c13.843 0 26.266 5.593 35.321 14.647 9.055 9.056 14.648 21.47 14.648 35.312v89.888z" class="st0"/><path d="M161.187 276.145h189.634v18.968H161.187zM144.592 333.04h222.817v18.959H144.592zM137.484 387.562h175.41v18.96h-175.41zM362.674 156.946c-9.549 0-17.28 7.73-17.28 17.27 0 9.548 7.731 17.28 17.28 17.28 9.54 0 17.27-7.731 17.27-17.28 0-9.54-7.731-17.27-17.27-17.27zM423.091 156.946c-9.54 0-17.271 7.73-17.271 17.27 0 9.548 7.731 17.28 17.271 17.28 9.548 0 17.28-7.731 17.28-17.28 0-9.54-7.731-17.27-17.28-17.27z" class="st0"/></svg>